# Rhino

mtllib Кристалл.mtl
g ____________
o object_1
usemtl Metal
v 4.6592354774475098 0 -0.035031847655773163 0 0 0
v 3.304837703704834 0 -3.304837703704834 0 0 0
v 0.035031847655773163 -13.357547760009766 -0.035031847655773163 0 0 0
v 3.304837703704834 0 -3.304837703704834 0 0 0
v 0.035031847655773163 0 -4.6592354774475098 0 0 0
v 0.035031847655773163 -13.357547760009766 -0.035031847655773163 0 0 0
v 0.035031847655773163 0 -4.6592354774475098 0 0 0
v -3.234774112701416 0 -3.304837703704834 0 0 0
v 0.035031847655773163 -13.357547760009766 -0.035031847655773163 0 0 0
v -3.234774112701416 0 -3.304837703704834 0 0 0
v -4.5891718864440918 0 -0.035031847655773163 0 0 0
v 0.035031847655773163 -13.357547760009766 -0.035031847655773163 0 0 0
v -4.5891718864440918 0 -0.035031847655773163 0 0 0
v -3.234774112701416 0 3.234774112701416 0 0 0
v 0.035031847655773163 -13.357547760009766 -0.035031847655773163 0 0 0
v -3.234774112701416 0 3.234774112701416 0 0 0
v 0.035031847655773163 0 4.5891718864440918 0 0 0
v 0.035031847655773163 -13.357547760009766 -0.035031847655773163 0 0 0
v 0.035031847655773163 0 4.5891718864440918 0 0 0
v 3.304837703704834 0 3.234774112701416 0 0 0
v 0.035031847655773163 -13.357547760009766 -0.035031847655773163 0 0 0
v 3.304837703704834 0 3.234774112701416 0 0 0
v 4.6592354774475098 0 -0.035031847655773163 0 0 0
v 0.035031847655773163 -13.357547760009766 -0.035031847655773163 0 0 0
v 4.6592354774475098 0 -0.035031847655773163 0 0 0
v 3.304837703704834 0 -3.304837703704834 0 0 0
v 0.035031847655773163 0 -4.6592354774475098 0 0 0
v -3.234774112701416 0 -3.304837703704834 0 0 0
v -4.5891718864440918 0 -0.035031847655773163 0 0 0
v -3.234774112701416 0 3.234774112701416 0 0 0
v 0.035031847655773163 0 4.5891718864440918 0 0 0
v 3.304837703704834 0 3.234774112701416 0 0 0
vt 0.58209842443466187 0
vt 0.70681667327880859 0
vt 0.64445757865905762 0.5
vt 0.14552460610866547 0
vt 0.271707683801651 0
vt 0.20861615240573883 0.49853515625
vt 0 0
vt 0.12618307769298553 0
vt 0.063091538846492767 0.49853515625
vt 0.29104921221733093 0
vt 0.41723230481147766 0
vt 0.3541407585144043 0.49853515625
vt 0.43657383322715759 0
vt 0.56275689601898193 0
vt 0.49966537952423096 0.49853515625
vt 0.70828151702880859 0
vt 0.83299976587295532 0
vt 0.77064067125320435 0.5
vt 0.45591536164283752 0.5
vt 0.58063358068466187 0.5
vt 0.51827448606491089 0.99853515625
vt 0.32973229885101318 0.5
vt 0.45445051789283752 0.5
vt 0.39209139347076416 0.99853515625
vt 0.32826745510101318 0.66486614942550659
vt 0.28019380569458008 0.78144413232803345
vt 0.16413372755050659 0.82973229885101318
vt 0.048073656857013702 0.78144413232803345
vt 0 0.66486614942550659
vt 0.048073656857013702 0.54828816652297974
vt 0.16413372755050659 0.5
vt 0.28019380569458008 0.54828816652297974
vn 0.87996739149093628 -0.30463290214538574 -0.36449441313743591
vn 0.87996739149093628 -0.30463290214538574 -0.36449441313743591
vn 0.87996739149093628 -0.30463290214538574 -0.36449441313743591
vn 0.36449441313743591 -0.30463290214538574 -0.87996739149093628
vn 0.36449441313743591 -0.30463290214538574 -0.87996739149093628
vn 0.36449441313743591 -0.30463290214538574 -0.87996739149093628
vn -0.36449441313743591 -0.30463290214538574 -0.87996739149093628
vn -0.36449441313743591 -0.30463290214538574 -0.87996739149093628
vn -0.36449441313743591 -0.30463290214538574 -0.87996739149093628
vn -0.87996739149093628 -0.30463290214538574 -0.36449441313743591
vn -0.87996739149093628 -0.30463290214538574 -0.36449441313743591
vn -0.87996739149093628 -0.30463290214538574 -0.36449441313743591
vn -0.87996739149093628 -0.30463290214538574 0.36449441313743591
vn -0.87996739149093628 -0.30463290214538574 0.36449441313743591
vn -0.87996739149093628 -0.30463290214538574 0.36449441313743591
vn -0.36449441313743591 -0.30463290214538574 0.87996739149093628
vn -0.36449441313743591 -0.30463290214538574 0.87996739149093628
vn -0.36449441313743591 -0.30463290214538574 0.87996739149093628
vn 0.36449441313743591 -0.30463290214538574 0.87996739149093628
vn 0.36449441313743591 -0.30463290214538574 0.87996739149093628
vn 0.36449441313743591 -0.30463290214538574 0.87996739149093628
vn 0.87996739149093628 -0.30463290214538574 0.36449441313743591
vn 0.87996739149093628 -0.30463290214538574 0.36449441313743591
vn 0.87996739149093628 -0.30463290214538574 0.36449441313743591
vn 0 1 0
vn 0 1 0
vn 0 1 0
vn 0 1 0
vn 0 1 0
vn 0 1 0
vn 0 1 0
vn 0 1 0
f 3/3/3 2/2/2 1/1/1
f 6/6/6 5/5/5 4/4/4
f 9/9/9 8/8/8 7/7/7
f 12/12/12 11/11/11 10/10/10
f 15/15/15 14/14/14 13/13/13
f 18/18/18 17/17/17 16/16/16
f 21/21/21 20/20/20 19/19/19
f 24/24/24 23/23/23 22/22/22
f 29/29/29 30/30/30 31/31/31
f 31/31/31 28/28/28 29/29/29
f 28/28/28 31/31/31 32/32/32
f 26/26/26 32/32/32 25/25/25
f 26/26/26 27/27/27 28/28/28
f 32/32/32 26/26/26 28/28/28
o object_2
usemtl Metal
v 4.6592354774475098 0 -0.035031847655773163 0 0 0
v 3.304837703704834 0 -3.304837703704834 0 0 0
v 0.035031847655773163 13.357547760009766 -0.035031847655773163 0 0 0
v 3.304837703704834 0 -3.304837703704834 0 0 0
v 0.035031847655773163 0 -4.6592354774475098 0 0 0
v 0.035031847655773163 13.357547760009766 -0.035031847655773163 0 0 0
v 0.035031847655773163 0 -4.6592354774475098 0 0 0
v -3.234774112701416 0 -3.304837703704834 0 0 0
v 0.035031847655773163 13.357547760009766 -0.035031847655773163 0 0 0
v -3.234774112701416 0 -3.304837703704834 0 0 0
v -4.5891718864440918 0 -0.035031847655773163 0 0 0
v 0.035031847655773163 13.357547760009766 -0.035031847655773163 0 0 0
v -4.5891718864440918 0 -0.035031847655773163 0 0 0
v -3.234774112701416 0 3.234774112701416 0 0 0
v 0.035031847655773163 13.357547760009766 -0.035031847655773163 0 0 0
v -3.234774112701416 0 3.234774112701416 0 0 0
v 0.035031847655773163 0 4.5891718864440918 0 0 0
v 0.035031847655773163 13.357547760009766 -0.035031847655773163 0 0 0
v 0.035031847655773163 0 4.5891718864440918 0 0 0
v 3.304837703704834 0 3.234774112701416 0 0 0
v 0.035031847655773163 13.357547760009766 -0.035031847655773163 0 0 0
v 3.304837703704834 0 3.234774112701416 0 0 0
v 4.6592354774475098 0 -0.035031847655773163 0 0 0
v 0.035031847655773163 13.357547760009766 -0.035031847655773163 0 0 0
v 4.6592354774475098 0 -0.035031847655773163 0 0 0
v 3.304837703704834 0 -3.304837703704834 0 0 0
v 0.035031847655773163 0 -4.6592354774475098 0 0 0
v -3.234774112701416 0 -3.304837703704834 0 0 0
v -4.5891718864440918 0 -0.035031847655773163 0 0 0
v -3.234774112701416 0 3.234774112701416 0 0 0
v 0.035031847655773163 0 4.5891718864440918 0 0 0
v 3.304837703704834 0 3.234774112701416 0 0 0
vt 0.58209842443466187 0
vt 0.70681667327880859 0
vt 0.64445757865905762 0.5
vt 0.29104921221733093 0
vt 0.41723230481147766 0
vt 0.3541407585144043 0.49853515625
vt 0.14552460610866547 0
vt 0.271707683801651 0
vt 0.20861615240573883 0.49853515625
vt 0.45591536164283752 0.5
vt 0.58063358068466187 0.5
vt 0.51827448606491089 0.99853515625
vt 0 0
vt 0.12618307769298553 0
vt 0.063091538846492767 0.49853515625
vt 0.70828151702880859 0
vt 0.83299976587295532 0
vt 0.77064067125320435 0.5
vt 0.32973229885101318 0.5
vt 0.45445051789283752 0.5
vt 0.39209139347076416 0.99853515625
vt 0.43657383322715759 0
vt 0.56275689601898193 0
vt 0.49966537952423096 0.49853515625
vt 0.32826745510101318 0.66486614942550659
vt 0.28019380569458008 0.78144413232803345
vt 0.16413372755050659 0.82973229885101318
vt 0.048073656857013702 0.78144413232803345
vt 0 0.66486614942550659
vt 0.048073656857013702 0.54828816652297974
vt 0.16413372755050659 0.5
vt 0.28019380569458008 0.54828816652297974
vn 0.87996739149093628 0.30463290214538574 -0.36449441313743591
vn 0.87996739149093628 0.30463290214538574 -0.36449441313743591
vn 0.87996739149093628 0.30463290214538574 -0.36449441313743591
vn 0.36449441313743591 0.30463290214538574 -0.87996739149093628
vn 0.36449441313743591 0.30463290214538574 -0.87996739149093628
vn 0.36449441313743591 0.30463290214538574 -0.87996739149093628
vn -0.36449441313743591 0.30463290214538574 -0.87996739149093628
vn -0.36449441313743591 0.30463290214538574 -0.87996739149093628
vn -0.36449441313743591 0.30463290214538574 -0.87996739149093628
vn -0.87996739149093628 0.30463290214538574 -0.36449441313743591
vn -0.87996739149093628 0.30463290214538574 -0.36449441313743591
vn -0.87996739149093628 0.30463290214538574 -0.36449441313743591
vn -0.87996739149093628 0.30463290214538574 0.36449441313743591
vn -0.87996739149093628 0.30463290214538574 0.36449441313743591
vn -0.87996739149093628 0.30463290214538574 0.36449441313743591
vn -0.36449441313743591 0.30463290214538574 0.87996739149093628
vn -0.36449441313743591 0.30463290214538574 0.87996739149093628
vn -0.36449441313743591 0.30463290214538574 0.87996739149093628
vn 0.36449441313743591 0.30463290214538574 0.87996739149093628
vn 0.36449441313743591 0.30463290214538574 0.87996739149093628
vn 0.36449441313743591 0.30463290214538574 0.87996739149093628
vn 0.87996739149093628 0.30463290214538574 0.36449441313743591
vn 0.87996739149093628 0.30463290214538574 0.36449441313743591
vn 0.87996739149093628 0.30463290214538574 0.36449441313743591
vn 0 -1 0
vn 0 -1 0
vn 0 -1 0
vn 0 -1 0
vn 0 -1 0
vn 0 -1 0
vn 0 -1 0
vn 0 -1 0
f 35/35/35 33/33/33 34/34/34
f 38/38/38 36/36/36 37/37/37
f 41/41/41 39/39/39 40/40/40
f 44/44/44 42/42/42 43/43/43
f 47/47/47 45/45/45 46/46/46
f 50/50/50 48/48/48 49/49/49
f 53/53/53 51/51/51 52/52/52
f 56/56/56 54/54/54 55/55/55
f 61/61/61 63/63/63 62/62/62
f 63/63/63 61/61/61 60/60/60
f 60/60/60 64/64/64 63/63/63
f 58/58/58 57/57/57 64/64/64
f 58/58/58 60/60/60 59/59/59
f 64/64/64 60/60/60 58/58/58
o object_3
usemtl Metal
v 4.6592354774475098 0 -0.035031847655773163 0 0 0
v 3.304837703704834 0 -3.304837703704834 0 0 0
v 0.035031847655773163 13.357547760009766 -0.035031847655773163 0 0 0
v 3.304837703704834 0 -3.304837703704834 0 0 0
v 0.035031847655773163 0 -4.6592354774475098 0 0 0
v 0.035031847655773163 13.357547760009766 -0.035031847655773163 0 0 0
v 0.035031847655773163 0 -4.6592354774475098 0 0 0
v -3.234774112701416 0 -3.304837703704834 0 0 0
v 0.035031847655773163 13.357547760009766 -0.035031847655773163 0 0 0
v -3.234774112701416 0 -3.304837703704834 0 0 0
v -4.5891718864440918 0 -0.035031847655773163 0 0 0
v 0.035031847655773163 13.357547760009766 -0.035031847655773163 0 0 0
v -4.5891718864440918 0 -0.035031847655773163 0 0 0
v -3.234774112701416 0 3.234774112701416 0 0 0
v 0.035031847655773163 13.357547760009766 -0.035031847655773163 0 0 0
v -3.234774112701416 0 3.234774112701416 0 0 0
v 0.035031847655773163 0 4.5891718864440918 0 0 0
v 0.035031847655773163 13.357547760009766 -0.035031847655773163 0 0 0
v 0.035031847655773163 0 4.5891718864440918 0 0 0
v 3.304837703704834 0 3.234774112701416 0 0 0
v 0.035031847655773163 13.357547760009766 -0.035031847655773163 0 0 0
v 3.304837703704834 0 3.234774112701416 0 0 0
v 4.6592354774475098 0 -0.035031847655773163 0 0 0
v 0.035031847655773163 13.357547760009766 -0.035031847655773163 0 0 0
v 4.6592354774475098 0 -0.035031847655773163 0 0 0
v 3.304837703704834 0 -3.304837703704834 0 0 0
v 0.035031847655773163 0 -4.6592354774475098 0 0 0
v -3.234774112701416 0 -3.304837703704834 0 0 0
v -4.5891718864440918 0 -0.035031847655773163 0 0 0
v -3.234774112701416 0 3.234774112701416 0 0 0
v 0.035031847655773163 0 4.5891718864440918 0 0 0
v 3.304837703704834 0 3.234774112701416 0 0 0
vt 0.58209842443466187 0
vt 0.70681667327880859 0
vt 0.64445757865905762 0.5
vt 0.29104921221733093 0
vt 0.41723230481147766 0
vt 0.3541407585144043 0.49853515625
vt 0.14552460610866547 0
vt 0.271707683801651 0
vt 0.20861615240573883 0.49853515625
vt 0.45591536164283752 0.5
vt 0.58063358068466187 0.5
vt 0.51827448606491089 0.99853515625
vt 0 0
vt 0.12618307769298553 0
vt 0.063091538846492767 0.49853515625
vt 0.70828151702880859 0
vt 0.83299976587295532 0
vt 0.77064067125320435 0.5
vt 0.32973229885101318 0.5
vt 0.45445051789283752 0.5
vt 0.39209139347076416 0.99853515625
vt 0.43657383322715759 0
vt 0.56275689601898193 0
vt 0.49966537952423096 0.49853515625
vt 0.32826745510101318 0.66486614942550659
vt 0.28019380569458008 0.78144413232803345
vt 0.16413372755050659 0.82973229885101318
vt 0.048073656857013702 0.78144413232803345
vt 0 0.66486614942550659
vt 0.048073656857013702 0.54828816652297974
vt 0.16413372755050659 0.5
vt 0.28019380569458008 0.54828816652297974
vn 0.87996739149093628 0.30463290214538574 -0.36449441313743591
vn 0.87996739149093628 0.30463290214538574 -0.36449441313743591
vn 0.87996739149093628 0.30463290214538574 -0.36449441313743591
vn 0.36449441313743591 0.30463290214538574 -0.87996739149093628
vn 0.36449441313743591 0.30463290214538574 -0.87996739149093628
vn 0.36449441313743591 0.30463290214538574 -0.87996739149093628
vn -0.36449441313743591 0.30463290214538574 -0.87996739149093628
vn -0.36449441313743591 0.30463290214538574 -0.87996739149093628
vn -0.36449441313743591 0.30463290214538574 -0.87996739149093628
vn -0.87996739149093628 0.30463290214538574 -0.36449441313743591
vn -0.87996739149093628 0.30463290214538574 -0.36449441313743591
vn -0.87996739149093628 0.30463290214538574 -0.36449441313743591
vn -0.87996739149093628 0.30463290214538574 0.36449441313743591
vn -0.87996739149093628 0.30463290214538574 0.36449441313743591
vn -0.87996739149093628 0.30463290214538574 0.36449441313743591
vn -0.36449441313743591 0.30463290214538574 0.87996739149093628
vn -0.36449441313743591 0.30463290214538574 0.87996739149093628
vn -0.36449441313743591 0.30463290214538574 0.87996739149093628
vn 0.36449441313743591 0.30463290214538574 0.87996739149093628
vn 0.36449441313743591 0.30463290214538574 0.87996739149093628
vn 0.36449441313743591 0.30463290214538574 0.87996739149093628
vn 0.87996739149093628 0.30463290214538574 0.36449441313743591
vn 0.87996739149093628 0.30463290214538574 0.36449441313743591
vn 0.87996739149093628 0.30463290214538574 0.36449441313743591
vn 0 -1 0
vn 0 -1 0
vn 0 -1 0
vn 0 -1 0
vn 0 -1 0
vn 0 -1 0
vn 0 -1 0
vn 0 -1 0
f 67/67/67 65/65/65 66/66/66
f 70/70/70 68/68/68 69/69/69
f 73/73/73 71/71/71 72/72/72
f 76/76/76 74/74/74 75/75/75
f 79/79/79 77/77/77 78/78/78
f 82/82/82 80/80/80 81/81/81
f 85/85/85 83/83/83 84/84/84
f 88/88/88 86/86/86 87/87/87
f 93/93/93 95/95/95 94/94/94
f 95/95/95 93/93/93 92/92/92
f 92/92/92 96/96/96 95/95/95
f 90/90/90 89/89/89 96/96/96
f 90/90/90 92/92/92 91/91/91
f 96/96/96 92/92/92 90/90/90
